# xmcd CD database file
#
# Track frame offsets:
#	150
#	12880
#	25925
#	39310
#	52087
#	66175
#	81467
#	93462
#	105375
#	117590
#	130132
#	144052
#	158082
#	171762
#	184010
#	197730
#	212032
#	226695
#	240977
#	256400
#	270797
#	285865
#	299895
#
# Disc length: 4194 seconds
#
# Revision: 0
# Processed by: cddbd v1.5.1PL0 Copyright (c) Steve Scherf et al.
# Submitted via: CDex 1.51
#
DISCID=3a106017
DTITLE=Tommie Bradley and James Cole - The Complete Recorded Works in Chronological Order 1928-32
DYEAR=1991
DGENRE=Blues
TTITLE0=Bill Cheatum
TTITLE1=I Got A Gal
TTITLE2=Old Fashioned Blues
TTITLE3=Seven Men Blues
TTITLE4=Try That Man O Mine
TTITLE5=Pay With Money
TTITLE6=Can'T Get Enough
TTITLE7=Good And Hot
TTITLE8=Mamma Keep Your Yes Ma'Am Clean
TTITLE9=Evrybody Got Somebody
TTITLE10=Where You Been So Long
TTITLE11=Adam And Eve
TTITLE12=Runnin' Wild
TTITLE13=Sweet Lizzie
TTITLE14=Pack Up Her Trunk Blues
TTITLE15=When You'Re Down And Out
TTITLE16=Please Don'T Act That Way
TTITLE17=I Love My Mary
TTITLE18=Four Day Blues
TTITLE19=Undertaker Blues
TTITLE20=Mistreated The Only Friend You Had
TTITLE21=Nobody'S Business
TTITLE22=Window Pane Blues
EXTD=YEAR: 1991
EXTT0=
EXTT1=
EXTT2=
EXTT3=
EXTT4=
EXTT5=
EXTT6=
EXTT7=
EXTT8=
EXTT9=
EXTT10=
EXTT11=
EXTT12=
EXTT13=
EXTT14=
EXTT15=
EXTT16=
EXTT17=
EXTT18=
EXTT19=
EXTT20=
EXTT21=
EXTT22=
PLAYORDER=
